<mxfile host="app.diagrams.net" modified="2024-04-04T18:18:23.282Z" agent="Mozilla/5.0 (Windows NT 10.0; Win64; x64) AppleWebKit/537.36 (KHTML, like Gecko) Chrome/123.0.0.0 Safari/537.36" etag="I450saHMEVcbABCh0ido" version="24.2.2" type="github">
  <diagram name="PÃ¡gina-1" id="y5MTKA7V9xZslkAVUTXU">
    <mxGraphModel dx="2741" dy="1018" grid="1" gridSize="10" guides="1" tooltips="1" connect="1" arrows="1" fold="1" page="1" pageScale="1" pageWidth="827" pageHeight="1169" math="0" shadow="0">
      <root>
        <mxCell id="0" />
        <mxCell id="1" parent="0" />
        <mxCell id="2M3XvzQ8hgE7RZHOMurx-1" value="CATEGORIA" style="rounded=0;whiteSpace=wrap;html=1;" vertex="1" parent="1">
          <mxGeometry x="220" y="650" width="120" height="60" as="geometry" />
        </mxCell>
        <mxCell id="2M3XvzQ8hgE7RZHOMurx-2" value="USUARIO" style="rounded=0;whiteSpace=wrap;html=1;" vertex="1" parent="1">
          <mxGeometry x="-130" y="370" width="120" height="60" as="geometry" />
        </mxCell>
        <mxCell id="2M3XvzQ8hgE7RZHOMurx-3" value="GRUPO" style="rounded=0;whiteSpace=wrap;html=1;" vertex="1" parent="1">
          <mxGeometry x="340" y="370" width="120" height="60" as="geometry" />
        </mxCell>
        <mxCell id="2M3XvzQ8hgE7RZHOMurx-4" value="COMENTARIO" style="rounded=0;whiteSpace=wrap;html=1;" vertex="1" parent="1">
          <mxGeometry x="40" y="750" width="120" height="60" as="geometry" />
        </mxCell>
        <mxCell id="2M3XvzQ8hgE7RZHOMurx-5" value="LOCALIZACAO" style="rounded=0;whiteSpace=wrap;html=1;" vertex="1" parent="1">
          <mxGeometry x="470" y="790" width="120" height="60" as="geometry" />
        </mxCell>
        <mxCell id="2M3XvzQ8hgE7RZHOMurx-6" value="POSTAGEM" style="rounded=0;whiteSpace=wrap;html=1;" vertex="1" parent="1">
          <mxGeometry x="240" y="840" width="120" height="60" as="geometry" />
        </mxCell>
        <mxCell id="2M3XvzQ8hgE7RZHOMurx-7" value="&lt;u&gt;email&lt;/u&gt;" style="ellipse;whiteSpace=wrap;html=1;" vertex="1" parent="1">
          <mxGeometry x="-320" y="280" width="120" height="60" as="geometry" />
        </mxCell>
        <mxCell id="2M3XvzQ8hgE7RZHOMurx-8" value="nome" style="ellipse;whiteSpace=wrap;html=1;" vertex="1" parent="1">
          <mxGeometry x="-200" y="240" width="120" height="60" as="geometry" />
        </mxCell>
        <mxCell id="2M3XvzQ8hgE7RZHOMurx-9" value="data_nascimento" style="ellipse;whiteSpace=wrap;html=1;" vertex="1" parent="1">
          <mxGeometry x="-413" y="370" width="120" height="60" as="geometry" />
        </mxCell>
        <mxCell id="2M3XvzQ8hgE7RZHOMurx-10" value="telefone" style="ellipse;whiteSpace=wrap;html=1;" vertex="1" parent="1">
          <mxGeometry x="-320" y="440" width="120" height="60" as="geometry" />
        </mxCell>
        <mxCell id="2M3XvzQ8hgE7RZHOMurx-11" value="senha" style="ellipse;whiteSpace=wrap;html=1;" vertex="1" parent="1">
          <mxGeometry x="-40" y="240" width="120" height="60" as="geometry" />
        </mxCell>
        <mxCell id="2M3XvzQ8hgE7RZHOMurx-12" value="" style="endArrow=none;html=1;rounded=0;" edge="1" parent="1" source="2M3XvzQ8hgE7RZHOMurx-10" target="2M3XvzQ8hgE7RZHOMurx-2">
          <mxGeometry width="50" height="50" relative="1" as="geometry">
            <mxPoint x="110" y="700" as="sourcePoint" />
            <mxPoint x="160" y="650" as="targetPoint" />
          </mxGeometry>
        </mxCell>
        <mxCell id="2M3XvzQ8hgE7RZHOMurx-13" value="" style="endArrow=none;html=1;rounded=0;" edge="1" parent="1" source="2M3XvzQ8hgE7RZHOMurx-9" target="2M3XvzQ8hgE7RZHOMurx-2">
          <mxGeometry width="50" height="50" relative="1" as="geometry">
            <mxPoint x="110" y="700" as="sourcePoint" />
            <mxPoint x="160" y="650" as="targetPoint" />
          </mxGeometry>
        </mxCell>
        <mxCell id="2M3XvzQ8hgE7RZHOMurx-14" value="" style="endArrow=none;html=1;rounded=0;" edge="1" parent="1" source="2M3XvzQ8hgE7RZHOMurx-7" target="2M3XvzQ8hgE7RZHOMurx-2">
          <mxGeometry width="50" height="50" relative="1" as="geometry">
            <mxPoint x="110" y="700" as="sourcePoint" />
            <mxPoint x="160" y="650" as="targetPoint" />
          </mxGeometry>
        </mxCell>
        <mxCell id="2M3XvzQ8hgE7RZHOMurx-15" value="" style="endArrow=none;html=1;rounded=0;" edge="1" parent="1" source="2M3XvzQ8hgE7RZHOMurx-8" target="2M3XvzQ8hgE7RZHOMurx-2">
          <mxGeometry width="50" height="50" relative="1" as="geometry">
            <mxPoint x="110" y="700" as="sourcePoint" />
            <mxPoint x="160" y="650" as="targetPoint" />
          </mxGeometry>
        </mxCell>
        <mxCell id="2M3XvzQ8hgE7RZHOMurx-16" value="" style="endArrow=none;html=1;rounded=0;" edge="1" parent="1" source="2M3XvzQ8hgE7RZHOMurx-11" target="2M3XvzQ8hgE7RZHOMurx-2">
          <mxGeometry width="50" height="50" relative="1" as="geometry">
            <mxPoint x="110" y="700" as="sourcePoint" />
            <mxPoint x="160" y="650" as="targetPoint" />
          </mxGeometry>
        </mxCell>
        <mxCell id="2M3XvzQ8hgE7RZHOMurx-17" value="&lt;u&gt;codigo&lt;/u&gt;" style="ellipse;whiteSpace=wrap;html=1;" vertex="1" parent="1">
          <mxGeometry x="270" y="250" width="120" height="60" as="geometry" />
        </mxCell>
        <mxCell id="2M3XvzQ8hgE7RZHOMurx-18" value="descricao" style="ellipse;whiteSpace=wrap;html=1;" vertex="1" parent="1">
          <mxGeometry x="540" y="320" width="120" height="60" as="geometry" />
        </mxCell>
        <mxCell id="2M3XvzQ8hgE7RZHOMurx-19" value="titulo" style="ellipse;whiteSpace=wrap;html=1;" vertex="1" parent="1">
          <mxGeometry x="440" y="250" width="120" height="60" as="geometry" />
        </mxCell>
        <mxCell id="2M3XvzQ8hgE7RZHOMurx-20" value="link" style="ellipse;whiteSpace=wrap;html=1;" vertex="1" parent="1">
          <mxGeometry x="540" y="440" width="120" height="60" as="geometry" />
        </mxCell>
        <mxCell id="2M3XvzQ8hgE7RZHOMurx-21" value="" style="endArrow=none;html=1;rounded=0;" edge="1" parent="1" source="2M3XvzQ8hgE7RZHOMurx-20" target="2M3XvzQ8hgE7RZHOMurx-3">
          <mxGeometry width="50" height="50" relative="1" as="geometry">
            <mxPoint x="390" y="670" as="sourcePoint" />
            <mxPoint x="440" y="620" as="targetPoint" />
          </mxGeometry>
        </mxCell>
        <mxCell id="2M3XvzQ8hgE7RZHOMurx-22" value="" style="endArrow=none;html=1;rounded=0;" edge="1" parent="1" source="2M3XvzQ8hgE7RZHOMurx-3" target="2M3XvzQ8hgE7RZHOMurx-18">
          <mxGeometry width="50" height="50" relative="1" as="geometry">
            <mxPoint x="390" y="670" as="sourcePoint" />
            <mxPoint x="440" y="620" as="targetPoint" />
          </mxGeometry>
        </mxCell>
        <mxCell id="2M3XvzQ8hgE7RZHOMurx-23" value="" style="endArrow=none;html=1;rounded=0;" edge="1" parent="1" source="2M3XvzQ8hgE7RZHOMurx-3" target="2M3XvzQ8hgE7RZHOMurx-19">
          <mxGeometry width="50" height="50" relative="1" as="geometry">
            <mxPoint x="390" y="670" as="sourcePoint" />
            <mxPoint x="440" y="620" as="targetPoint" />
          </mxGeometry>
        </mxCell>
        <mxCell id="2M3XvzQ8hgE7RZHOMurx-24" value="" style="endArrow=none;html=1;rounded=0;" edge="1" parent="1" source="2M3XvzQ8hgE7RZHOMurx-3" target="2M3XvzQ8hgE7RZHOMurx-17">
          <mxGeometry width="50" height="50" relative="1" as="geometry">
            <mxPoint x="390" y="670" as="sourcePoint" />
            <mxPoint x="440" y="620" as="targetPoint" />
          </mxGeometry>
        </mxCell>
        <mxCell id="2M3XvzQ8hgE7RZHOMurx-25" value="" style="rhombus;whiteSpace=wrap;html=1;" vertex="1" parent="1">
          <mxGeometry x="130" y="360" width="80" height="80" as="geometry" />
        </mxCell>
        <mxCell id="2M3XvzQ8hgE7RZHOMurx-26" value="" style="endArrow=none;html=1;rounded=0;" edge="1" parent="1" source="2M3XvzQ8hgE7RZHOMurx-25" target="2M3XvzQ8hgE7RZHOMurx-3">
          <mxGeometry width="50" height="50" relative="1" as="geometry">
            <mxPoint x="390" y="670" as="sourcePoint" />
            <mxPoint x="440" y="620" as="targetPoint" />
          </mxGeometry>
        </mxCell>
        <mxCell id="2M3XvzQ8hgE7RZHOMurx-27" value="" style="endArrow=none;html=1;rounded=0;" edge="1" parent="1" source="2M3XvzQ8hgE7RZHOMurx-25" target="2M3XvzQ8hgE7RZHOMurx-2">
          <mxGeometry width="50" height="50" relative="1" as="geometry">
            <mxPoint x="390" y="670" as="sourcePoint" />
            <mxPoint x="440" y="620" as="targetPoint" />
          </mxGeometry>
        </mxCell>
        <mxCell id="2M3XvzQ8hgE7RZHOMurx-28" value="N" style="text;html=1;align=center;verticalAlign=middle;whiteSpace=wrap;rounded=0;" vertex="1" parent="1">
          <mxGeometry x="320" y="370" width="20" height="30" as="geometry" />
        </mxCell>
        <mxCell id="2M3XvzQ8hgE7RZHOMurx-29" value="N" style="text;html=1;align=center;verticalAlign=middle;whiteSpace=wrap;rounded=0;" vertex="1" parent="1">
          <mxGeometry x="-10" y="370" width="20" height="30" as="geometry" />
        </mxCell>
      </root>
    </mxGraphModel>
  </diagram>
</mxfile>
